<svg width="64" height="24" viewBox="0 0 64 24" fill="none" xmlns="http://www.w3.org/2000/svg">
<path fill-rule="evenodd" clip-rule="evenodd" d="M19.5556 10.6667C19.5556 5.76 15.5733 1.77778 10.6667 1.77778C5.76 1.77778 1.77778 5.76 1.77778 10.6667V16.5689V17.7778H0V10.6667C0 4.77333 4.77333 0 10.6667 0C16.56 0 21.3333 4.77333 21.3333 10.6667V17.7778H19.5556V16.5689V15.7333V10.6667ZM16 10.6667C16 13.6089 13.6089 16 10.6667 16C9.40444 16 8.24889 15.5644 7.34222 14.8356C7.25333 14.7644 7.11111 14.8267 7.11111 14.9422V16.7289C7.11111 16.7911 7.14667 16.8533 7.2 16.88C8.22222 17.4578 9.40444 17.7778 10.6667 17.7778C14.5956 17.7778 17.7778 14.5956 17.7778 10.6667C17.7778 6.73778 14.5956 3.55556 10.6667 3.55556C6.73778 3.55556 3.55556 6.73778 3.55556 10.6667V17.7778H5.33333V10.6667C5.33333 7.72444 7.72444 5.33333 10.6667 5.33333C13.6089 5.33333 16 7.72444 16 10.6667ZM10.6667 12.4444C11.6444 12.4444 12.4444 11.6444 12.4444 10.6667C12.4444 9.68889 11.6444 8.88889 10.6667 8.88889C9.68889 8.88889 8.88889 9.68889 8.88889 10.6667C8.88889 11.6444 9.68889 12.4444 10.6667 12.4444ZM10.6667 14.2222C12.6311 14.2222 14.2222 12.6311 14.2222 10.6667C14.2222 8.70222 12.6311 7.11111 10.6667 7.11111C8.70222 7.11111 7.11111 8.70222 7.11111 10.6667C7.11111 12.6311 8.70222 14.2222 10.6667 14.2222ZM62.6933 7.29778C61.8222 6.44445 60.6844 6.00889 59.28 6.00889C58.4889 6.00889 57.7689 6.16889 57.1111 6.49778C56.4622 6.81778 55.9556 7.28 55.5733 7.86667V6.22222H53.6533V17.7778H55.5733V11.3867C55.5733 10.1778 55.8667 9.25333 56.4622 8.62222C57.0667 7.99111 57.8756 7.67111 58.8889 7.67111C59.8844 7.67111 60.6756 7.98222 61.2533 8.59556C61.8311 9.2 62.1156 10.08 62.1156 11.2356V17.7778H64V10.9689C64 9.36 63.5644 8.14222 62.6933 7.29778ZM32.4267 17.9644C31.3422 17.9644 30.3644 17.7156 29.4756 17.2267C28.6044 16.7378 27.9111 16.0356 27.4133 15.1378C26.9244 14.2222 26.6756 13.1733 26.6756 11.9733C26.6756 10.7911 26.9244 9.75111 27.4311 8.85333C27.9556 7.93778 28.6578 7.24445 29.5378 6.76445C30.4267 6.27556 31.4133 6.02667 32.5067 6.02667C33.6 6.02667 34.5956 6.27556 35.4756 6.76445C36.3644 7.24445 37.0578 7.92889 37.5644 8.82667C38.0889 9.72444 38.3467 10.7733 38.3467 11.9644C38.3467 13.1556 38.08 14.2133 37.5467 15.1289C37.0222 16.0267 36.32 16.7289 35.4133 17.2178C34.5156 17.7244 33.52 17.9644 32.4267 17.9644ZM32.4267 16.2844C33.12 16.2844 33.76 16.1244 34.3644 15.7956C34.9689 15.4756 35.4578 14.9867 35.8222 14.3378C36.2044 13.6889 36.3911 12.9067 36.3911 11.9733C36.3911 11.0489 36.2044 10.2578 35.84 9.60889C35.4756 8.96 34.9956 8.48 34.4089 8.17778C33.8222 7.85778 33.1822 7.68889 32.4889 7.68889C31.7867 7.68889 31.1378 7.84889 30.5511 8.17778C29.9733 8.48889 29.5111 8.96889 29.1556 9.60889C28.8 10.2578 28.6311 11.04 28.6311 11.9733C28.6311 12.9156 28.8 13.7067 29.1378 14.3556C29.4933 15.0044 29.9556 15.4844 30.5333 15.8133C31.1022 16.1244 31.7333 16.2844 32.4267 16.2844ZM42.0889 8.35556C42.4711 7.69778 43.0311 7.14667 43.7778 6.71111C44.5333 6.25778 45.4133 6.03556 46.4178 6.03556C47.44 6.03556 48.3733 6.28444 49.2 6.77333C50.0444 7.26222 50.7022 7.96445 51.1822 8.86222C51.6622 9.75111 51.9022 10.7822 51.9022 11.9644C51.9022 13.1289 51.6622 14.1689 51.1822 15.0844C50.7022 16 50.0444 16.7111 49.2 17.2178C48.3733 17.7244 47.44 17.9733 46.4178 17.9733C45.4311 17.9733 44.56 17.7511 43.8044 17.3156C43.0578 16.8622 42.4889 16.3111 42.0978 15.6533V23.12H40.1778V6.22222H42.0978V8.35556H42.0889ZM49.9289 11.9556C49.9289 11.0844 49.7511 10.3289 49.4044 9.68C49.0489 9.03111 48.5778 8.54222 47.9733 8.20444C47.3867 7.86667 46.7289 7.69778 46.0089 7.69778C45.3067 7.69778 44.6489 7.87556 44.0444 8.22222C43.4578 8.56 42.9778 9.05778 42.6133 9.71555C42.2578 10.3644 42.0889 11.1111 42.0889 11.9733C42.0889 12.8444 42.2667 13.6089 42.6133 14.2756C42.9778 14.9244 43.4578 15.4222 44.0444 15.7689C44.6489 16.1067 45.3067 16.2756 46.0089 16.2756C46.7289 16.2756 47.3778 16.1067 47.9733 15.7689C48.5778 15.4133 49.0578 14.9156 49.4044 14.2756C49.7511 13.6178 49.9289 12.8444 49.9289 11.9556Z" fill="#181B21"/>
</svg>
